<?xml version="1.0" encoding="UTF-8"?>
<svg id="Camada_2" data-name="Camada 2" xmlns="http://www.w3.org/2000/svg" viewBox="0 0 435.29 97.02">
  <defs>
    <style>
      .cls-1 {
        letter-spacing: .49em;
      }

      .cls-2 {
        letter-spacing: .5em;
      }

      .cls-3 {
        letter-spacing: .51em;
      }

      .cls-4 {
        letter-spacing: .51em;
      }

      .cls-5 {
        fill: #fff;
        font-family: NewOrder-Regular, 'New Order';
        font-size: 13.44px;
        stroke: #fff;
        stroke-miterlimit: 17.01;
      }

      .cls-6 {
        letter-spacing: .48em;
      }

      .cls-7 {
        stroke: blue;
        stroke-miterlimit: 17.01;
        stroke-width: 3.25px;
      }

      .cls-7, .cls-8 {
        fill: blue;
      }

      .cls-9 {
        fill: #e51e25;
      }

      .cls-9, .cls-8 {
        stroke-width: 0px;
      }
    </style>
  </defs>
  <g id="Camada_1-2" data-name="Camada 1">
    <g>
      <g>
        <g>
          <path class="cls-9" d="M0,2.89h38.84c6.47,0,11.44,1.71,14.91,5.13,3.47,3.42,5.2,7.66,5.2,12.71,0,4.24-1.24,7.87-3.71,10.9-1.65,2.02-4.06,3.62-7.24,4.79,4.82,1.24,8.37,3.36,10.65,6.38,2.28,3.01,3.41,6.8,3.41,11.36,0,3.71-.81,7.05-2.43,10.02-1.62,2.96-3.83,5.31-6.64,7.04-1.74,1.08-4.37,1.86-7.88,2.35-4.67.65-7.77.98-9.3.98H0V2.89ZM20.93,30.99h9.02c3.24,0,5.49-.59,6.76-1.78,1.27-1.19,1.9-2.91,1.9-5.16,0-2.08-.63-3.71-1.9-4.89-1.27-1.17-3.47-1.76-6.62-1.76h-9.16v13.59ZM20.93,59.14h10.58c3.57,0,6.09-.68,7.56-2.03,1.47-1.35,2.2-3.17,2.2-5.45,0-2.12-.72-3.82-2.18-5.11-1.45-1.29-3.99-1.93-7.63-1.93h-10.53v14.51Z"/>
          <path class="cls-9" d="M65.22,22.63h17.45v8.5c1.68-3.68,3.41-6.21,5.2-7.6,1.79-1.39,3.99-2.08,6.62-2.08s5.76.91,9.02,2.74l-5.77,14.17c-2.2-.98-3.94-1.47-5.22-1.47-2.44,0-4.34,1.08-5.68,3.23-1.92,3.03-2.89,8.7-2.89,17.01v17.4h-18.73V22.63Z"/>
          <path class="cls-9" d="M118.62,39.44l-17.82-2c.67-3.32,1.64-5.94,2.91-7.84,1.27-1.91,3.09-3.56,5.47-4.96,1.71-1.01,4.06-1.79,7.05-2.35,2.99-.55,6.23-.83,9.71-.83,5.59,0,10.08.33,13.47,1,3.39.67,6.21,2.06,8.47,4.18,1.59,1.47,2.84,3.54,3.76,6.23.92,2.69,1.37,5.25,1.37,7.7v22.92c0,2.44.14,4.36.44,5.74.29,1.38.92,3.15,1.9,5.3h-17.5c-.7-1.34-1.16-2.35-1.37-3.06-.21-.7-.43-1.8-.64-3.3-2.44,2.51-4.87,4.3-7.28,5.38-3.3,1.43-7.13,2.15-11.5,2.15-5.8,0-10.21-1.43-13.21-4.3-3.01-2.87-4.51-6.4-4.51-10.61,0-3.94,1.08-7.18,3.25-9.73s6.17-4.43,12-5.67c6.99-1.5,11.53-2.55,13.6-3.15,2.08-.6,4.27-1.39,6.59-2.37,0-2.44-.47-4.15-1.42-5.13-.95-.98-2.61-1.47-4.99-1.47-3.05,0-5.34.52-6.87,1.56-1.19.81-2.15,2.35-2.89,4.59ZM134.79,49.9c-2.56.98-5.24,1.84-8.01,2.59-3.79,1.08-6.18,2.13-7.19,3.18-1.04,1.07-1.56,2.3-1.56,3.67,0,1.56.51,2.84,1.53,3.84,1.02.99,2.53,1.49,4.51,1.49s4.01-.54,5.79-1.61c1.79-1.08,3.05-2.39,3.8-3.93.75-1.55,1.12-3.56,1.12-6.04v-3.18Z"/>
        </g>
        <g>
          <path class="cls-8" d="M287.22,40.09l-17.77-2c.67-3.32,1.64-5.94,2.9-7.84,1.26-1.91,3.08-3.56,5.46-4.96,1.71-1.01,4.05-1.79,7.04-2.35,2.99-.55,6.21-.83,9.69-.83,5.57,0,10.05.33,13.43,1,3.38.67,6.2,2.06,8.45,4.18,1.58,1.47,2.83,3.54,3.75,6.23.91,2.69,1.37,5.25,1.37,7.7v22.92c0,2.44.15,4.36.43,5.74.29,1.38.92,3.15,1.9,5.3h-17.45c-.7-1.34-1.16-2.35-1.37-3.05-.21-.7-.43-1.8-.64-3.3-2.44,2.51-4.86,4.3-7.27,5.37-3.29,1.43-7.11,2.15-11.47,2.15-5.79,0-10.18-1.43-13.18-4.3-3-2.87-4.5-6.4-4.5-10.61,0-3.94,1.08-7.18,3.24-9.72,2.16-2.54,6.15-4.43,11.97-5.67,6.97-1.5,11.5-2.55,13.57-3.15s4.26-1.39,6.58-2.37c0-2.44-.47-4.15-1.42-5.13-.94-.98-2.61-1.47-4.98-1.47-3.05,0-5.33.52-6.85,1.56-1.19.81-2.15,2.35-2.88,4.59ZM303.35,50.55c-2.56.98-5.22,1.84-8,2.59-3.78,1.07-6.17,2.13-7.17,3.18-1.04,1.08-1.55,2.3-1.55,3.67,0,1.56.51,2.84,1.53,3.84,1.02.99,2.52,1.49,4.5,1.49s4-.54,5.78-1.61c1.78-1.07,3.05-2.39,3.79-3.93.75-1.55,1.12-3.56,1.12-6.04v-3.18Z"/>
          <path class="cls-8" d="M362.24,54.9l17.68,2.15c-.98,3.94-2.57,7.36-4.8,10.24-2.22,2.88-5.06,5.12-8.52,6.72-3.46,1.6-7.85,2.39-13.18,2.39s-9.44-.51-12.86-1.54c-3.43-1.03-6.37-2.69-8.84-4.98-2.47-2.3-4.4-4.99-5.8-8.09s-2.1-7.2-2.1-12.31.85-9.79,2.56-13.34c1.25-2.61,2.96-4.94,5.12-7.01,2.16-2.07,4.39-3.61,6.67-4.62,3.63-1.6,8.27-2.39,13.94-2.39,7.92,0,13.96,1.52,18.12,4.55,4.16,3.03,7.08,7.46,8.75,13.29l-17.5,2.49c-.55-2.22-1.55-3.88-2.99-5.01-1.45-1.12-3.39-1.69-5.83-1.69-3.08,0-5.57,1.18-7.47,3.54-1.9,2.36-2.86,5.94-2.86,10.73,0,4.27.94,7.51,2.83,9.73,1.89,2.22,4.3,3.32,7.22,3.32,2.44,0,4.49-.67,6.14-2,1.66-1.34,2.9-3.39,3.72-6.16Z"/>
          <path class="cls-8" d="M379.55,49.38c0-7.92,2.5-14.44,7.49-19.57,5-5.13,11.74-7.7,20.24-7.7,9.72,0,17.06,3.01,22.02,9.04,3.99,4.86,5.99,10.83,5.99,17.94,0,7.98-2.48,14.52-7.43,19.62-4.95,5.1-11.8,7.65-20.54,7.65-7.8,0-14.1-2.12-18.92-6.35-5.91-5.25-8.86-12.12-8.86-20.62ZM398.19,49.33c0,4.63.88,8.05,2.63,10.26,1.75,2.22,3.95,3.32,6.6,3.32s4.88-1.09,6.6-3.27c1.72-2.18,2.58-5.68,2.58-10.51,0-4.5-.87-7.84-2.6-10.04-1.74-2.2-3.88-3.3-6.44-3.3-2.71,0-4.95,1.12-6.72,3.35-1.77,2.23-2.65,5.63-2.65,10.19Z"/>
        </g>
      </g>
      <path class="cls-9" d="M166.8,96.91s4.76.11,13.65.11c6.29,0,11.26-1.17,14.91-3.5,3.65-2.33,6.32-5.47,8.02-9.42,1.69-3.94,2.54-8,2.54-12.17s-.8-7.91-2.4-11.36c-1.6-3.45-3.92-6.1-6.94-7.96-3.02-1.86-7.63-3.31-13.83-4.35-4.09-.73-6.75-1.54-7.97-2.45-1.22-.91-1.83-2.24-1.83-4.01,0-1.59.48-2.93,1.44-4.04.96-1.11,2.5-1.67,4.6-1.67s3.85.73,5.31,2.18c1.07,1.09,1.83,2.79,2.29,5.11l17.68-2.59c-1.22-4.72-2.76-8.46-4.6-11.23-1.85-2.77-4.15-4.81-6.92-6.13-2.76-1.31-7.05-1.97-12.85-1.97-5.5,0-9.88.85-13.15,2.55-3.27,1.7-5.83,4.27-7.69,7.72-1.86,3.45-2.79,7.55-2.79,12.31,0,4.35.86,8.23,2.59,11.63,1.72,3.4,6.98,7.35,9.71,8.3,4.67,1.62,3.08.85,9.56,2.53,4.34,1.13,7.59,3.16,8.6,3.93,1.4,1.09,2.11,2.63,2.11,4.62,0,1.77-.54,3.24-1.6,4.42-1.37,1.59-3.82,1.62-6.32,1.62-2.29,0-14.2-.23-14.2-.23l.1,16.06Z"/>
      <path class="cls-7" d="M214.39,69.37c4.39,4.69,12.28,7.04,23.67,7.04,6.49,0,11.86-1,16.13-3,4.26-2,7.59-4.94,9.96-8.82,2.38-3.88,3.56-8.11,3.56-12.71,0-3.91-.89-7.45-2.67-10.61-1.78-3.16-4.63-5.81-8.54-7.94-3.92-2.13-10.39-4.24-19.44-6.33-3.66-.81-5.97-1.69-6.95-2.64-1.01-.91-1.51-1.94-1.51-3.08,0-1.56.61-2.89,1.83-3.98,1.22-1.09,3.03-1.64,5.44-1.64,2.92,0,10.94-.31,13.15-.31,115.68-.27,176.6-.31,176.6-.31l.08-13.41s-179.22.69-187.78.69c-6.98,0-12.47.94-16.47,2.81-4.01,1.87-7.01,4.45-9,7.72-2,3.27-2.99,6.75-2.99,10.43,0,5.6,1.95,10.21,5.85,13.83,3.87,3.62,10.34,6.52,19.42,8.7,5.54,1.3,9.08,2.69,10.6,4.15,1.52,1.47,2.28,3.13,2.28,4.98,0,1.95-.8,3.67-2.4,5.16-1.6,1.48-3.88,2.23-6.83,2.23-3.96,0-7.01-1.45-9.14-4.35-1.31-1.79-2.18-4.4-2.61-7.82l-19.69,1.32c.58,7.23,3.06,13.19,7.45,17.89Z"/>
      <rect class="cls-9" x=".39" y="80.89" width="166.82" height="15.98"/>
      <text class="cls-5" transform="translate(244.05 12.39)"><tspan class="cls-3" x="0" y="0">admini</tspan><tspan class="cls-2" x="81.88" y="0">st</tspan><tspan class="cls-6" x="103.61" y="0">r</tspan><tspan class="cls-3" x="113.93" y="0">ati</tspan><tspan class="cls-1" x="149.16" y="0">v</tspan><tspan class="cls-4" x="162.41" y="0">o</tspan></text>
    </g>
  </g>
</svg>